<?xml version="1.0" encoding="UTF-8"?>
<svg xmlns="http://www.w3.org/2000/svg" version="1.1" xmlns:xlink="http://www.w3.org/1999/xlink" viewBox="0 0 1000 400">
  <!-- Generator: Adobe Illustrator 30.2.1, SVG Export Plug-In . SVG Version: 2.1.1 Build 1)  -->
  <defs>
    <style>
      .st0 {
        letter-spacing: 0em;
      }

      .st1 {
        fill: #58595a;
        font-family: Nexa-Light, Nexa;
        font-size: 46.7px;
        font-weight: 300;
      }

      .st2 {
        letter-spacing: 0em;
      }

      .st3 {
        isolation: isolate;
      }

      .st4 {
        letter-spacing: 0em;
      }

      .st5 {
        fill: url(#GradientFill_3);
        opacity: .4;
      }

      .st5, .st6, .st7, .st8, .st9 {
        fill-rule: evenodd;
      }

      .st5, .st9 {
        mix-blend-mode: multiply;
      }

      .st6 {
        fill: url(#GradientFill_1);
      }

      .st7 {
        fill: #7fc247;
      }

      .st10 {
        fill: #02193a;
      }

      .st11 {
        letter-spacing: 0em;
      }

      .st8 {
        fill: #009fda;
      }

      .st9 {
        fill: url(#GradientFill_2);
        opacity: .5;
      }
    </style>
    <linearGradient id="GradientFill_1" data-name="GradientFill 1" x1="467.9" y1="154.6" x2="483.4" y2="171.9" gradientUnits="userSpaceOnUse">
      <stop offset="0" stop-color="#a6a8ab"/>
      <stop offset=".2" stop-color="#abadb0"/>
      <stop offset=".4" stop-color="#babcbe"/>
      <stop offset=".7" stop-color="#d4d5d6"/>
      <stop offset=".9" stop-color="#f7f7f7"/>
      <stop offset="1" stop-color="#fff"/>
    </linearGradient>
    <linearGradient id="GradientFill_2" data-name="GradientFill 2" x1="520.9" y1="161.2" x2="584.6" y2="192" gradientUnits="userSpaceOnUse">
      <stop offset="0" stop-color="#231f20"/>
      <stop offset="0" stop-color="#484545"/>
      <stop offset=".1" stop-color="#727071"/>
      <stop offset=".2" stop-color="#989697"/>
      <stop offset=".3" stop-color="#b8b7b7"/>
      <stop offset=".4" stop-color="#d2d1d1"/>
      <stop offset=".5" stop-color="#e6e5e5"/>
      <stop offset=".6" stop-color="#f4f4f4"/>
      <stop offset=".8" stop-color="#fcfcfc"/>
      <stop offset="1" stop-color="#fff"/>
    </linearGradient>
    <linearGradient id="GradientFill_3" data-name="GradientFill 3" x1="436.7" y1="158.4" x2="408.8" y2="145.7" gradientUnits="userSpaceOnUse">
      <stop offset="0" stop-color="#231f20"/>
      <stop offset="0" stop-color="#282425"/>
      <stop offset=".1" stop-color="#5a5758"/>
      <stop offset=".2" stop-color="#868484"/>
      <stop offset=".3" stop-color="#abaaaa"/>
      <stop offset=".4" stop-color="#c9c9c9"/>
      <stop offset=".6" stop-color="#e1e0e1"/>
      <stop offset=".7" stop-color="#f2f1f1"/>
      <stop offset=".8" stop-color="#fbfbfb"/>
      <stop offset="1" stop-color="#fff"/>
    </linearGradient>
  </defs>
  <g class="st3">
    <g id="Layer_1">
      <g>
        <g>
          <g>
            <polygon class="st7" points="535.6 127.8 523.5 100.8 471.6 215.9 495.1 215.9 522.8 155.9 535.6 127.8"/>
            <polygon class="st7" points="535.6 127.8 523.3 154.8 550.4 215.9 575.1 215.9 535.6 127.8"/>
            <g>
              <polygon class="st8" points="461.7 103.9 461.6 103.9 421.1 192 433.2 219 473.4 130.6 461.7 103.9"/>
              <polygon class="st8" points="433.5 165 406.3 103.9 381.6 103.9 421.1 192 433.5 165"/>
            </g>
            <polygon class="st6" points="490.6 167.2 475.2 134.5 463.4 160.5 478.3 194.5 490.6 167.2"/>
            <polygon class="st9" points="535.6 127.8 523.3 154.8 550.4 215.9 575.1 215.9 535.6 127.8"/>
            <polygon class="st5" points="433.5 165 406.3 103.9 381.6 103.9 421.1 192 433.5 165"/>
          </g>
          <g>
            <g>
              <path class="st10" d="M155.2,103.5v118.4l-74-69.1v63.5h-24.8v-118.4l73.8,69.1v-63.5h24.9Z"/>
              <path class="st10" d="M202.3,103.5v112.8h-24.8v-112.8h24.8ZM194.6,103.5h54v22.4h-54v-22.4ZM194.6,146.1h50.9v21.9h-50.9v-21.9ZM194.6,193.9h54v22.4h-54v-22.4Z"/>
              <path class="st10" d="M267.6,136.1c2.9-7.2,7-13.4,12.2-18.7,5.2-5.3,11.3-9.3,18.3-12.2,7-2.8,14.6-4.3,22.8-4.3s15.9,1.4,22.9,4.3c7,2.8,13.1,6.9,18.3,12.2,5.2,5.3,9.2,11.5,12.1,18.7,2.9,7.2,4.3,15.1,4.3,23.8s-1.4,16.7-4.2,24c-2.8,7.3-6.8,13.6-11.9,19-5.1,5.4-11.2,9.5-18.3,12.5-7,3-14.7,4.4-23.1,4.4s-16.2-1.5-23.2-4.4c-7-3-13.1-7.1-18.3-12.5-5.1-5.4-9.1-11.7-11.9-19-2.8-7.3-4.2-15.3-4.2-24s1.5-16.6,4.4-23.8ZM294.4,177.6c2.5,5.1,6,9.1,10.5,12,4.5,2.9,9.9,4.3,16,4.3s11.3-1.5,15.8-4.3c4.5-2.9,8-6.9,10.5-12,2.5-5.1,3.7-11,3.7-17.6s-1.2-12.5-3.7-17.6c-2.4-5.1-5.9-9.1-10.4-12-4.5-2.9-9.8-4.3-16.1-4.3s-11.4,1.4-16,4.3c-4.5,2.9-8.1,6.9-10.5,12-2.5,5.1-3.7,11-3.7,17.6s1.2,12.5,3.7,17.6Z"/>
            </g>
            <g>
              <path class="st10" d="M566.2,103.5h84.7v24.3h-29.5v88.4h-25.8v-88.4h-29.4v-24.3Z"/>
              <path class="st10" d="M688.6,103.5v112.8h-26.3v-112.8h26.3Z"/>
              <path class="st10" d="M709.2,136.1c2.9-7.2,7-13.4,12.2-18.7,5.2-5.3,11.3-9.3,18.3-12.2,7-2.8,14.6-4.3,22.8-4.3s15.9,1.4,22.9,4.3c7,2.8,13.1,6.9,18.3,12.2,5.2,5.3,9.2,11.5,12.1,18.7,2.9,7.2,4.3,15.1,4.3,23.8s-1.4,16.7-4.2,24c-2.8,7.3-6.8,13.6-11.9,19-5.1,5.4-11.2,9.5-18.3,12.5-7,3-14.7,4.4-23.1,4.4s-16.2-1.5-23.2-4.4c-7-3-13.1-7.1-18.3-12.5-5.1-5.4-9.1-11.7-11.9-19-2.8-7.3-4.2-15.3-4.2-24s1.5-16.6,4.4-23.8ZM735.9,177.6c2.5,5.1,6,9.1,10.5,12,4.5,2.9,9.9,4.3,16,4.3s11.3-1.5,15.8-4.3c4.5-2.9,8-6.9,10.5-12,2.5-5.1,3.7-11,3.7-17.6s-1.2-12.5-3.7-17.6c-2.4-5.1-5.9-9.1-10.4-12-4.5-2.9-9.8-4.3-16.1-4.3s-11.4,1.4-16,4.3c-4.5,2.9-8.1,6.9-10.5,12-2.5,5.1-3.7,11-3.7,17.6s1.2,12.5,3.7,17.6Z"/>
              <path class="st10" d="M934.9,103.5v118.4l-74-69.1v63.5h-24.8v-118.4l73.8,69.1v-63.5h24.9Z"/>
            </g>
          </g>
        </g>
        <text class="st1" transform="translate(50 288.2)"><tspan class="st11" x="0" y="0">MEDICA</tspan><tspan class="st0" x="198.8" y="0">L</tspan><tspan class="st2" x="226.3" y="0" xml:space="preserve">       </tspan><tspan class="st11" x="330" y="0">MARKETIN</tspan><tspan class="st4" x="587.8" y="0">G</tspan><tspan class="st2" x="623.6" y="0" xml:space="preserve">        </tspan><tspan class="st11" x="742.2" y="0">MEDI</tspan><tspan class="st0" x="868.5" y="0">A</tspan></text>
        <circle cx="327.1" cy="271.9" r="5.6"/>
        <circle cx="727.9" cy="271.9" r="5.6"/>
      </g>
    </g>
  </g>
</svg>